<?xml version="1.0" encoding="utf-8"?>
<svg version="1.1" xmlns:xlink="http://www.w3.org/1999/xlink" width="30px" height="30px" xmlns="http://www.w3.org/2000/svg">
  <g transform="matrix(1 0 0 1 -1358 -51 )">
    <path d="M 20.9598214285714 26.3922991071429  C 22.8013392857143 25.4157366071429  24.3136160714286 24.0904017857143  25.4966517857143 22.4162946428571  C 25.2511160714286 20.6863839285714  24.7628348214286 19.2494419642857  24.0318080357143 18.10546875  C 23.30078125 16.9614955357143  22.2712053571429 16.3002232142857  20.9430803571429 16.1216517857143  C 20.1953125 16.9475446428571  19.3052455357143 17.5920758928571  18.2728794642857 18.0552455357143  C 17.2405133928571 18.5184151785714  16.1495535714286 18.75  15 18.75  C 13.8504464285714 18.75  12.7594866071429 18.5184151785714  11.7271205357143 18.0552455357143  C 10.6947544642857 17.5920758928571  9.8046875 16.9475446428571  9.05691964285714 16.1216517857143  C 7.72879464285714 16.3002232142857  6.69921875 16.9614955357143  5.96819196428571 18.10546875  C 5.23716517857143 19.2494419642857  4.74888392857143 20.6863839285714  4.50334821428571 22.4162946428571  C 5.68638392857143 24.0904017857143  7.19866071428571 25.4157366071429  9.04017857142857 26.3922991071429  C 10.8816964285714 27.3688616071429  12.8683035714286 27.8571428571429  15 27.8571428571429  C 17.1316964285714 27.8571428571429  19.1183035714286 27.3688616071429  20.9598214285714 26.3922991071429  Z M 19.5452008928571 15.2594866071429  C 20.80078125 14.00390625  21.4285714285714 12.4888392857143  21.4285714285714 10.7142857142857  C 21.4285714285714 8.93973214285714  20.80078125 7.42466517857143  19.5452008928571 6.16908482142857  C 18.2896205357143 4.91350446428571  16.7745535714286 4.28571428571429  15 4.28571428571429  C 13.2254464285714 4.28571428571429  11.7103794642857 4.91350446428571  10.4547991071429 6.16908482142857  C 9.19921875 7.42466517857143  8.57142857142857 8.93973214285714  8.57142857142857 10.7142857142857  C 8.57142857142857 12.4888392857143  9.19921875 14.00390625  10.4547991071429 15.2594866071429  C 11.7103794642857 16.5150669642857  13.2254464285714 17.1428571428571  15 17.1428571428571  C 16.7745535714286 17.1428571428571  18.2896205357143 16.5150669642857  19.5452008928571 15.2594866071429  Z M 28.8113839285714 9.17410714285714  C 29.6037946428571 11.0267857142857  30 12.96875  30 15  C 30 17.03125  29.6037946428571 18.9704241071429  28.8113839285714 20.8175223214286  C 28.0189732142857 22.6646205357143  26.9559151785714 24.2606026785714  25.6222098214286 25.60546875  C 24.2885044642857 26.9503348214286  22.6953125 28.0189732142857  20.8426339285714 28.8113839285714  C 18.9899553571429 29.6037946428571  17.0424107142857 30  15 30  C 12.96875 30  11.0267857142857 29.6037946428571  9.17410714285714 28.8113839285714  C 7.32142857142857 28.0189732142857  5.72544642857143 26.953125  4.38616071428571 25.6138392857143  C 3.046875 24.2745535714286  1.98102678571429 22.6785714285714  1.18861607142857 20.8258928571429  C 0.396205357142857 18.9732142857143  0 17.03125  0 15  C 0 12.96875  0.396205357142857 11.0267857142857  1.18861607142857 9.17410714285714  C 1.98102678571429 7.32142857142857  3.046875 5.72544642857143  4.38616071428571 4.38616071428571  C 5.72544642857143 3.046875  7.32142857142857 1.98102678571428  9.17410714285714 1.18861607142857  C 11.0267857142857 0.396205357142857  12.96875 0  15 0  C 17.03125 0  18.9732142857143 0.396205357142857  20.8258928571429 1.18861607142857  C 22.6785714285714 1.98102678571428  24.2745535714286 3.046875  25.6138392857143 4.38616071428571  C 26.953125 5.72544642857143  28.0189732142857 7.32142857142857  28.8113839285714 9.17410714285714  Z " fill-rule="nonzero" fill="#ffffff" stroke="none" transform="matrix(1 0 0 1 1358 51 )" />
  </g>
</svg>